REM DIRINDEX 1\2,1\3,1\4,1\5
REM DIRNAME "folder01","folder02","folder03","folder04","folder05"
TITLE ""
FILE "1Q_t_1978-1987.mp3" MP3
  TRACK 01 AUDIO
    TITLE "0:"
    INDEX 01 00:00:00
  TRACK 02 AUDIO
    TITLE "3:cjc172_6940"
    INDEX 01 00:00:08
  TRACK 03 AUDIO
    TITLE "0:"
    INDEX 01 00:01:25
  TRACK 04 AUDIO
    TITLE "4:cjc172_6941"
    INDEX 01 00:01:37
  TRACK 05 AUDIO
    TITLE "0:"
    INDEX 01 00:04:16
  TRACK 06 AUDIO
    TITLE "5:cjc172_6942"
    INDEX 01 00:04:26
  TRACK 07 AUDIO
    TITLE "0:"
    INDEX 01 00:09:74
  TRACK 08 AUDIO
    TITLE "3:cjc172_6943"
    INDEX 01 00:10:44
  TRACK 09 AUDIO
    TITLE "0:"
    INDEX 01 00:11:71
  TRACK 10 AUDIO
    TITLE "4:cjc172_6944"
    INDEX 01 00:12:12
  TRACK 11 AUDIO
    TITLE "0:"
    INDEX 01 00:14:03
  TRACK 12 AUDIO
    TITLE "5:cjc172_6945"
    INDEX 01 00:14:12
  TRACK 13 AUDIO
    TITLE "0:"
    INDEX 01 00:18:53
  TRACK 14 AUDIO
    TITLE "3:cjc172_6946"
    INDEX 01 00:19:25
  TRACK 15 AUDIO
    TITLE "0:"
    INDEX 01 00:20:37
  TRACK 16 AUDIO
    TITLE "4:cjc172_6947"
    INDEX 01 00:20:46
  TRACK 17 AUDIO
    TITLE "0:"
    INDEX 01 00:23:03
  TRACK 18 AUDIO
    TITLE "5:cjc172_6948"
    INDEX 01 00:23:09
  TRACK 19 AUDIO
    TITLE "0:"
    INDEX 01 00:28:09
  TRACK 20 AUDIO
    TITLE "3:cjc172_6949"
    INDEX 01 00:28:58
  TRACK 21 AUDIO
    TITLE "0:"
    INDEX 01 00:29:65
  TRACK 22 AUDIO
    TITLE "4:cjc172_6950"
    INDEX 01 00:29:75
  TRACK 23 AUDIO
    TITLE "0:"
    INDEX 01 00:31:44
  TRACK 24 AUDIO
    TITLE "5:cjc172_6951"
    INDEX 01 00:31:50
  TRACK 25 AUDIO
    TITLE "0:"
    INDEX 01 00:36:45
  TRACK 26 AUDIO
    TITLE "3:cjc172_6952"
    INDEX 01 00:37:17
  TRACK 27 AUDIO
    TITLE "0:"
    INDEX 01 00:38:36
  TRACK 28 AUDIO
    TITLE "4:cjc172_6953"
    INDEX 01 00:38:48
  TRACK 29 AUDIO
    TITLE "0:"
    INDEX 01 00:40:59
  TRACK 30 AUDIO
    TITLE "5:cjc172_6954"
    INDEX 01 00:40:67
  TRACK 31 AUDIO
    TITLE "0:"
    INDEX 01 00:45:11
  TRACK 32 AUDIO
    TITLE "3:cjc172_6955"
    INDEX 01 00:45:58
  TRACK 33 AUDIO
    TITLE "0:"
    INDEX 01 00:47:04
  TRACK 34 AUDIO
    TITLE "4:cjc172_6956"
    INDEX 01 00:47:14
  TRACK 35 AUDIO
    TITLE "0:"
    INDEX 01 00:48:27
  TRACK 36 AUDIO
    TITLE "5:cjc172_6957"
    INDEX 01 00:48:37
  TRACK 37 AUDIO
    TITLE "0:"
    INDEX 01 00:52:68
  TRACK 38 AUDIO
    TITLE "3:cjc172_6958"
    INDEX 01 00:53:40
  TRACK 39 AUDIO
    TITLE "0:"
    INDEX 01 00:54:55
  TRACK 40 AUDIO
    TITLE "4:cjc172_6959"
    INDEX 01 00:54:65
  TRACK 41 AUDIO
    TITLE "0:"
    INDEX 01 00:58:27
  TRACK 42 AUDIO
    TITLE "5:cjc172_6960"
    INDEX 01 00:58:37
  TRACK 43 AUDIO
    TITLE "0:"
    INDEX 01 01:03:05
  TRACK 44 AUDIO
    TITLE "3:cjc172_6961"
    INDEX 01 01:03:52
  TRACK 45 AUDIO
    TITLE "0:"
    INDEX 01 01:04:67
  TRACK 46 AUDIO
    TITLE "4:cjc172_6962"
    INDEX 01 01:05:02
  TRACK 47 AUDIO
    TITLE "0:"
    INDEX 01 01:06:29
  TRACK 48 AUDIO
    TITLE "5:cjc172_6963"
    INDEX 01 01:06:39
  TRACK 49 AUDIO
    TITLE "0:"
    INDEX 01 01:11:24
  TRACK 50 AUDIO
    TITLE "3:cjc172_6964"
    INDEX 01 01:11:71
  TRACK 51 AUDIO
    TITLE "0:"
    INDEX 01 01:13:11
  TRACK 52 AUDIO
    TITLE "4:cjc172_6965"
    INDEX 01 01:13:21
  TRACK 53 AUDIO
    TITLE "0:"
    INDEX 01 01:15:49
  TRACK 54 AUDIO
    TITLE "5:cjc172_6966"
    INDEX 01 01:15:59
  TRACK 55 AUDIO
    TITLE "0:"
    INDEX 01 01:20:49
  TRACK 56 AUDIO
    TITLE "3:cjc172_6967"
    INDEX 01 01:21:19
  TRACK 57 AUDIO
    TITLE "0:"
    INDEX 01 01:22:36
  TRACK 58 AUDIO
    TITLE "4:cjc172_6968"
    INDEX 01 01:22:45
  TRACK 59 AUDIO
    TITLE "0:"
    INDEX 01 01:25:03
  TRACK 60 AUDIO
    TITLE "5:cjc172_6969"
    INDEX 01 01:25:12
  TRACK 61 AUDIO
    TITLE "0:"
    INDEX 01 01:29:65
